<svg xmlns="http://www.w3.org/2000/svg" shape-rendering="geometricPrecision" text-rendering="geometricPrecision" image-rendering="optimizeQuality" fill-rule="evenodd" clip-rule="evenodd" viewBox="0 0 512 420.16"><path fill-rule="nonzero" d="M74.32 0h363.36C478.55 0 512 33.46 512 74.32v271.53c0 40.81-33.5 74.31-74.32 74.31H74.32C33.44 420.16 0 386.69 0 345.85V74.32C0 33.41 33.41 0 74.32 0zm87.09 278.35h-46.09l35.39-136.54h67.5l35.39 136.54h-46.1l-5.02-21.63h-36.05l-5.02 21.63zm21.84-94.59l-8.95 38.23h20.09l-8.73-38.23h-2.41zm200.98 94.59h-48.06l-17.92-40.63h-9.38v40.63h-43.7V141.81h68.81c31.32 0 46.97 15.96 46.97 47.85 0 21.84-6.76 36.26-20.31 43.25l23.59 45.44zm-75.36-101.58v27.3h10.04c5.25 0 9.07-.54 11.47-1.63 2.4-1.09 3.6-3.61 3.6-7.54v-8.96c0-3.93-1.2-6.44-3.6-7.53-2.4-1.09-6.22-1.64-11.47-1.64h-10.04zM437.68 35.93H74.32c-21.08 0-38.39 17.31-38.39 38.39v271.53c0 21.1 17.25 38.39 38.39 38.39h363.36c21.16 0 38.39-17.24 38.39-38.39V74.32c0-21.09-17.29-38.39-38.39-38.39z"/></svg>