<svg width="24" height="24" viewBox="0 0 24 24" fill="none" xmlns="http://www.w3.org/2000/svg">
<path fill-rule="evenodd" clip-rule="evenodd" d="M4.84836 2.77564C7.18302 2.43237 9.57113 2.25464 12.0003 2.25464C14.4292 2.25464 16.8171 2.43234 19.1516 2.77555C21.1299 3.06641 22.5 4.79909 22.5 6.7452V12.7641C22.5 14.7102 21.1299 16.4429 19.1516 16.7337C18.0054 16.9022 16.8464 17.0309 15.6759 17.1181C15.5514 17.1274 15.4431 17.1921 15.379 17.2882L12.624 21.4207C12.4849 21.6293 12.2508 21.7546 12 21.7546C11.7492 21.7546 11.5151 21.6293 11.376 21.4207L8.62092 17.2881C8.5569 17.1921 8.44853 17.1273 8.32408 17.1181C7.15358 17.0308 5.99452 16.9021 4.84836 16.7336C2.87004 16.4427 1.5 14.7101 1.5 12.764V6.74528C1.5 4.79919 2.87004 3.06652 4.84836 2.77564ZM6.75 8.25464C6.75 7.84042 7.08579 7.50464 7.5 7.50464H16.5C16.9142 7.50464 17.25 7.84042 17.25 8.25464C17.25 8.66885 16.9142 9.00464 16.5 9.00464H7.5C7.08579 9.00464 6.75 8.66885 6.75 8.25464ZM7.5 10.5046C7.08579 10.5046 6.75 10.8404 6.75 11.2546C6.75 11.6689 7.08579 12.0046 7.5 12.0046H12C12.4142 12.0046 12.75 11.6689 12.75 11.2546C12.75 10.8404 12.4142 10.5046 12 10.5046H7.5Z" fill="url(#paint0_linear_1735_1866)"/>
<defs>
<linearGradient id="paint0_linear_1735_1866" x1="12" y1="2.25464" x2="12" y2="21.7546" gradientUnits="userSpaceOnUse">
<stop stop-color="#0175FF"/>
<stop offset="1" stop-color="#1CC5FD"/>
</linearGradient>
</defs>
</svg>
