<svg width="24" height="24" viewBox="0 0 24 24" fill="none" xmlns="http://www.w3.org/2000/svg">
<path fill-rule="evenodd" clip-rule="evenodd" d="M18.6854 19.1039C20.5721 17.326 21.75 14.8039 21.75 12.0068C21.75 6.62206 17.3848 2.25684 12 2.25684C6.61522 2.25684 2.25 6.62206 2.25 12.0068C2.25 14.8039 3.42785 17.326 5.31463 19.1039C7.06012 20.7488 9.41234 21.7568 12 21.7568C14.5877 21.7568 16.9399 20.7488 18.6854 19.1039ZM6.14512 17.8191C7.51961 16.1046 9.63161 15.0068 12 15.0068C14.3684 15.0068 16.4804 16.1046 17.8549 17.8191C16.3603 19.3246 14.289 20.2568 12 20.2568C9.711 20.2568 7.63973 19.3246 6.14512 17.8191ZM15.75 9.00684C15.75 11.0779 14.0711 12.7568 12 12.7568C9.92893 12.7568 8.25 11.0779 8.25 9.00684C8.25 6.93577 9.92893 5.25684 12 5.25684C14.0711 5.25684 15.75 6.93577 15.75 9.00684Z" fill="url(#paint0_linear_1735_3986)"/>
<defs>
<linearGradient id="paint0_linear_1735_3986" x1="12" y1="2.25684" x2="12" y2="21.7568" gradientUnits="userSpaceOnUse">
<stop stop-color="#0276FF"/>
<stop offset="1" stop-color="#1CC4FD"/>
</linearGradient>
</defs>
</svg>
